<svg xmlns="http://www.w3.org/2000/svg" xmlns:xlink="http://www.w3.org/1999/xlink" width="200" zoomAndPan="magnify" viewBox="0 0 150 149.999998" height="200" preserveAspectRatio="xMidYMid meet" version="1.0"><defs><g/><clipPath id="038b835002"><path d="M 101.5 67.15625 L 120 67.15625 L 120 85.90625 L 101.5 85.90625 Z M 101.5 67.15625 " clip-rule="nonzero"/></clipPath><clipPath id="1bc2d01da2"><path d="M 100.75 76.40625 C 100.75 79.058594 101.804688 81.601562 103.679688 83.476562 C 105.554688 85.351562 108.097656 86.40625 110.75 86.40625 C 113.402344 86.40625 115.945312 85.351562 117.820312 83.476562 C 119.699219 81.601562 120.75 79.058594 120.75 76.40625 C 120.75 73.753906 119.699219 71.210938 117.820312 69.335938 C 115.945312 67.457031 113.402344 66.40625 110.75 66.40625 C 108.097656 66.40625 105.554688 67.457031 103.679688 69.335938 C 101.804688 71.210938 100.75 73.753906 100.75 76.40625 Z M 100.75 76.40625 " clip-rule="nonzero"/></clipPath><clipPath id="8c78d38617"><path d="M 110.75 67.304688 C 113.164062 67.304688 115.480469 68.265625 117.1875 69.96875 C 118.890625 71.675781 119.851562 73.992188 119.851562 76.40625 C 119.851562 78.820312 118.890625 81.132812 117.1875 82.839844 C 115.480469 84.546875 113.164062 85.503906 110.75 85.503906 C 108.335938 85.503906 106.023438 84.546875 104.316406 82.839844 C 102.609375 81.132812 101.652344 78.820312 101.652344 76.40625 C 101.652344 73.992188 102.609375 71.675781 104.316406 69.96875 C 106.023438 68.265625 108.335938 67.304688 110.75 67.304688 Z M 110.75 67.304688 " clip-rule="nonzero"/></clipPath><clipPath id="403e86aab9"><path d="M 100.75 66.40625 L 120.992188 66.40625 L 120.992188 86.648438 L 100.75 86.648438 Z M 100.75 66.40625 " clip-rule="nonzero"/></clipPath><clipPath id="ee40ea11aa"><path d="M 100.75 76.40625 C 100.75 79.058594 101.804688 81.601562 103.679688 83.476562 C 105.554688 85.351562 108.097656 86.40625 110.75 86.40625 C 113.402344 86.40625 115.945312 85.351562 117.820312 83.476562 C 119.699219 81.601562 120.75 79.058594 120.75 76.40625 C 120.75 73.753906 119.699219 71.210938 117.820312 69.335938 C 115.945312 67.457031 113.402344 66.40625 110.75 66.40625 C 108.097656 66.40625 105.554688 67.457031 103.679688 69.335938 C 101.804688 71.210938 100.75 73.753906 100.75 76.40625 Z M 100.75 76.40625 " clip-rule="nonzero"/></clipPath><clipPath id="bb1e5aef45"><path d="M 100.75 76.402344 C 100.75 79.050781 101.804688 81.59375 103.679688 83.46875 C 105.554688 85.34375 108.097656 86.398438 110.746094 86.398438 C 113.398438 86.398438 115.941406 85.34375 117.816406 83.46875 C 119.691406 81.59375 120.742188 79.050781 120.742188 76.402344 C 120.742188 73.75 119.691406 71.207031 117.816406 69.332031 C 115.941406 67.457031 113.398438 66.40625 110.746094 66.40625 C 108.097656 66.40625 105.554688 67.457031 103.679688 69.332031 C 101.804688 71.207031 100.75 73.75 100.75 76.402344 Z M 100.75 76.402344 " clip-rule="nonzero"/></clipPath></defs><g fill="#171616" fill-opacity="1"><g transform="translate(22.807725, 85.253666)"><g><path d="M 10.953125 -16.875 L 10.21875 -16.875 L 13.5 -8.453125 L 13.5 0 L 0.53125 0 L 0.53125 -34.21875 L 14.8125 -34.21875 L 21.8125 -18.1875 L 28.796875 -34.21875 L 43.03125 -34.21875 L 43.03125 0 L 30.109375 0 L 30.109375 -8.453125 L 33.390625 -16.875 L 32.65625 -16.875 L 27.765625 -4.296875 L 15.84375 -4.296875 Z M 10.953125 -16.875 "/></g></g></g><g fill="#171616" fill-opacity="1"><g transform="translate(66.324189, 85.253666)"><g><path d="M 22.296875 -19.40625 L 23.03125 -19.40625 L 20.296875 -23.859375 L 20.296875 -34.21875 L 33 -34.21875 L 33 0 L 20.140625 0 L 11.25 -14.171875 L 10.46875 -14.171875 L 13.25 -9.6875 L 13.25 0 L 0.53125 0 L 0.53125 -34.21875 L 12.765625 -34.21875 Z M 22.296875 -19.40625 "/></g></g></g><g clip-path="url(#038b835002)"><g clip-path="url(#1bc2d01da2)"><g clip-path="url(#8c78d38617)"><path fill="#231f20" d="M 110.886719 66.414062 C 105.292969 66.414062 100.761719 70.949219 100.761719 76.539062 C 100.761719 82.128906 105.292969 86.664062 110.886719 86.664062 C 116.480469 86.664062 121.011719 82.128906 121.011719 76.539062 C 121.011719 70.949219 116.480469 66.414062 110.886719 66.414062 Z M 110.886719 86.023438 C 105.648438 86.023438 101.402344 81.777344 101.402344 76.539062 C 101.402344 71.300781 105.648438 67.054688 110.886719 67.054688 C 116.125 67.054688 120.371094 71.300781 120.371094 76.539062 C 120.371094 81.777344 116.125 86.023438 110.886719 86.023438 Z M 110.886719 86.023438 " fill-opacity="1" fill-rule="nonzero"/></g></g></g><g clip-path="url(#403e86aab9)"><g clip-path="url(#ee40ea11aa)"><g clip-path="url(#bb1e5aef45)"><path stroke-linecap="butt" transform="matrix(0.75, 0, 0, 0.75, 100.750915, 66.405349)" fill="none" stroke-linejoin="miter" d="M -0.0012205 13.329328 C -0.0012205 16.860578 1.40503 20.251203 3.90503 22.751203 C 6.40503 25.251203 9.795655 26.657454 13.326905 26.657454 C 16.863364 26.657454 20.253989 25.251203 22.753989 22.751203 C 25.253989 20.251203 26.655031 16.860578 26.655031 13.329328 C 26.655031 9.792869 25.253989 6.402244 22.753989 3.902244 C 20.253989 1.402244 16.863364 0.00120196 13.326905 0.00120196 C 9.795655 0.00120196 6.40503 1.402244 3.90503 3.902244 C 1.40503 6.402244 -0.0012205 9.792869 -0.0012205 13.329328 Z M -0.0012205 13.329328 " stroke="#171616" stroke-width="36" stroke-opacity="1" stroke-miterlimit="4"/></g></g></g></svg>